<?xml version="1.0" encoding="UTF-8" standalone="no"?>
<!DOCTYPE svg PUBLIC "-//W3C//DTD SVG 1.1//EN" "http://www.w3.org/Graphics/SVG/1.1/DTD/svg11.dtd">
<svg width="100%" height="100%" viewBox="0 0 210 78" version="1.1" xmlns="http://www.w3.org/2000/svg" xmlns:xlink="http://www.w3.org/1999/xlink" xml:space="preserve" xmlns:serif="http://www.serif.com/" style="fill-rule:evenodd;clip-rule:evenodd;stroke-linejoin:round;stroke-miterlimit:2;">
    <g id="グループ_37">
        <g id="パス_61" transform="matrix(1,0,0,1,-1.093,0)">
            <path d="M48.738,16.2C49.422,14.706 49.776,13.082 49.776,11.438C49.776,5.162 44.611,-0.003 38.335,-0.003C32.059,-0.003 26.894,5.162 26.894,11.438C26.894,11.44 26.894,11.441 26.894,11.443C26.894,11.529 26.905,11.612 26.907,11.697L26.882,11.697C26.882,11.612 26.894,11.529 26.894,11.444C26.894,11.44 26.894,11.435 26.894,11.431C26.894,5.152 21.728,-0.014 15.449,-0.014C9.17,-0.014 4.004,5.152 4.004,11.431C4.004,13.077 4.359,14.704 5.045,16.2L5.039,16.2L5.062,16.233C5.546,17.282 6.187,18.251 6.962,19.107L9.462,22.888L44.313,22.888L46.813,19.115C47.594,18.254 48.24,17.279 48.727,16.223L48.738,16.2Z" style="fill:rgb(7,188,167);fill-rule:nonzero;"/>
        </g>
        <g id="パス_62" transform="matrix(1,0,0,1,-20.502,-9.568)">
            <path d="M75,40.876L75,56.176L90.26,62.052L90.26,35L75,40.876Z" style="fill:rgb(7,188,167);fill-rule:nonzero;"/>
        </g>
        <g id="パス_63" transform="matrix(1,0,0,1,-4.028,-20.228)">
            <path d="M37.152,80.54L43.266,80.54L43.266,74L17.107,74L17.107,80.54L23.948,80.54L14.734,94.685L19.605,97.858L27.28,86.075L27.28,97.975L33.093,97.975L33.093,84.959L41.493,97.859L46.364,94.686L37.152,80.54Z" style="fill:rgb(7,188,167);fill-rule:nonzero;"/>
        </g>
        <g id="パス_64" transform="matrix(1,0,0,1,-31.688,-4.113)">
            <path d="M126.567,15.477C127.175,15.736 127.712,16.137 128.134,16.646C128.486,17.068 128.77,17.543 128.975,18.054C129.19,18.616 129.295,19.213 129.285,19.814C129.28,20.633 129.074,21.438 128.685,22.158C128.265,22.943 127.55,23.529 126.698,23.787C127.382,24.025 127.962,24.492 128.339,25.11C128.711,25.93 128.877,26.828 128.821,27.727L128.821,28.851C128.804,29.371 128.835,29.892 128.913,30.407C128.982,30.802 129.217,31.15 129.559,31.36L129.559,31.78L125.7,31.78C125.594,31.409 125.518,31.109 125.473,30.88C125.382,30.405 125.332,29.922 125.325,29.438L125.302,27.882C125.38,27.127 125.184,26.369 124.749,25.747C124.176,25.324 123.464,25.134 122.757,25.214L119.341,25.214L119.341,31.78L115.924,31.78L115.924,15.045L123.924,15.045C124.823,15.024 125.719,15.171 126.565,15.477M119.337,17.952L119.337,22.452L123.1,22.452C123.673,22.483 124.247,22.39 124.781,22.18C125.468,21.818 125.863,21.067 125.773,20.296C125.875,19.488 125.5,18.69 124.814,18.252C124.306,18.024 123.752,17.921 123.196,17.952L119.337,17.952Z" style="fill:rgb(7,188,167);fill-rule:nonzero;"/>
        </g>
        <g id="パス_65" transform="matrix(1,0,0,1,-37.947,-5.629)">
            <path d="M147.861,21.171C148.733,21.565 149.476,22.199 150,23C150.52,23.767 150.858,24.642 150.987,25.559C151.086,26.374 151.122,27.195 151.093,28.015L142.08,28.015C142.025,29.051 142.517,30.043 143.374,30.627C143.912,30.95 144.531,31.111 145.158,31.093C146.191,31.173 147.173,30.607 147.621,29.673L150.921,29.673C150.772,30.528 150.351,31.313 149.721,31.91C148.504,33.155 146.803,33.813 145.065,33.71C143.478,33.731 141.934,33.192 140.706,32.187C139.447,31.172 138.818,29.521 138.818,27.233C138.695,25.428 139.309,23.647 140.518,22.301C141.692,21.142 143.295,20.521 144.943,20.585C145.943,20.57 146.936,20.768 147.854,21.165M143.013,23.965C142.528,24.495 142.226,25.166 142.15,25.88L147.725,25.88C147.719,25.138 147.407,24.429 146.863,23.924C146.328,23.473 145.644,23.235 144.944,23.257C144.23,23.213 143.529,23.47 143.013,23.965" style="fill:rgb(7,188,167);fill-rule:nonzero;"/>
        </g>
        <g id="パス_66" transform="matrix(1,0,0,1,-43.42,-5.65)">
            <path d="M174.34,20.988C174.908,21.229 175.405,21.612 175.782,22.1C176.143,22.564 176.384,23.11 176.482,23.69C176.57,24.295 176.608,24.907 176.595,25.518L176.572,33.318L173.257,33.318L173.257,25.438C173.271,25.04 173.194,24.643 173.03,24.28C172.727,23.696 172.096,23.353 171.441,23.417C170.652,23.355 169.906,23.803 169.59,24.529C169.405,24.979 169.316,25.462 169.328,25.948L169.328,33.317L166.07,33.317L166.07,25.949C166.1,25.406 166.023,24.862 165.843,24.349C165.556,23.741 164.912,23.379 164.243,23.449C163.501,23.358 162.771,23.711 162.381,24.349C162.18,24.83 162.091,25.35 162.12,25.871L162.12,33.319L158.838,33.319L158.838,20.965L161.983,20.965L161.983,22.765C162.28,22.245 162.664,21.78 163.118,21.391C164.547,20.464 166.386,20.425 167.853,21.291C168.33,21.688 168.697,22.2 168.92,22.778C169.287,22.108 169.834,21.554 170.498,21.178C171.188,20.832 171.951,20.656 172.723,20.667C173.276,20.669 173.823,20.777 174.335,20.985" style="fill:rgb(7,188,167);fill-rule:nonzero;"/>
        </g>
        <g id="パス_67" transform="matrix(1,0,0,1,-51.29,-5.629)">
            <path d="M196.67,21.171C197.542,21.565 198.284,22.2 198.808,23C199.327,23.767 199.665,24.642 199.794,25.559C199.893,26.374 199.929,27.195 199.9,28.015L190.887,28.015C190.833,29.051 191.324,30.043 192.181,30.627C192.719,30.95 193.338,31.111 193.965,31.093C194.998,31.173 195.98,30.607 196.428,29.673L199.728,29.673C199.579,30.528 199.158,31.313 198.528,31.91C197.31,33.155 195.61,33.813 193.871,33.71C192.285,33.731 190.741,33.191 189.513,32.187C188.254,31.172 187.625,29.521 187.624,27.233C187.501,25.428 188.115,23.647 189.324,22.301C190.498,21.142 192.102,20.52 193.75,20.585C194.75,20.57 195.742,20.768 196.66,21.165M191.82,23.965C191.335,24.494 191.032,25.166 190.957,25.88L196.531,25.88C196.525,25.138 196.214,24.43 195.67,23.924C195.135,23.473 194.451,23.235 193.751,23.257C193.037,23.213 192.336,23.47 191.82,23.965" style="fill:rgb(7,188,167);fill-rule:nonzero;"/>
        </g>
        <g id="パス_68" transform="matrix(1,0,0,1,-56.938,-5.65)">
            <path d="M223.789,20.988C224.357,21.229 224.853,21.612 225.23,22.1C225.592,22.564 225.832,23.11 225.93,23.69C226.019,24.295 226.057,24.907 226.043,25.518L226.02,33.318L222.705,33.318L222.705,25.438C222.72,25.04 222.642,24.643 222.478,24.28C222.175,23.696 221.544,23.353 220.889,23.417C220.1,23.355 219.354,23.803 219.038,24.529C218.853,24.979 218.764,25.462 218.776,25.948L218.776,33.317L215.518,33.317L215.518,25.949C215.548,25.406 215.471,24.862 215.291,24.349C215.004,23.741 214.36,23.379 213.691,23.449C212.949,23.358 212.219,23.711 211.829,24.349C211.629,24.83 211.539,25.351 211.568,25.871L211.568,33.319L208.286,33.319L208.286,20.965L211.431,20.965L211.431,22.765C211.728,22.246 212.112,21.781 212.566,21.391C213.995,20.464 215.834,20.425 217.301,21.291C217.778,21.687 218.145,22.199 218.368,22.778C218.735,22.109 219.282,21.554 219.946,21.178C220.636,20.832 221.399,20.656 222.171,20.667C222.724,20.669 223.271,20.777 223.783,20.985" style="fill:rgb(7,188,167);fill-rule:nonzero;"/>
        </g>
        <g id="パス_69" transform="matrix(1,0,0,1,-65.132,-4.121)">
            <path d="M248.947,20.9C249.917,22.21 250.407,23.814 250.336,25.442C250.402,27.141 249.922,28.816 248.966,30.222C247.468,32.124 244.788,32.67 242.666,31.505C242.19,31.157 241.78,30.726 241.456,30.233L241.456,31.788L238.265,31.788L238.265,15.076L241.5,15.076L241.5,21.026C241.86,20.5 242.323,20.052 242.86,19.709C243.536,19.307 244.314,19.11 245.1,19.141C246.589,19.073 248.023,19.73 248.945,20.901M246.245,28.44C246.745,27.647 246.989,26.719 246.945,25.783C246.968,25.041 246.851,24.302 246.601,23.603C246.263,22.582 245.275,21.909 244.201,21.968C243.126,21.899 242.127,22.554 241.762,23.568C241.511,24.273 241.394,25.02 241.419,25.768C241.383,26.697 241.63,27.616 242.128,28.402C242.615,29.106 243.438,29.503 244.292,29.447C245.076,29.476 245.82,29.092 246.25,28.436" style="fill:rgb(7,188,167);fill-rule:nonzero;"/>
        </g>
        <g id="パス_70" transform="matrix(1,0,0,1,-70.588,-5.629)">
            <path d="M267.267,21.171C268.139,21.565 268.882,22.199 269.406,23C269.926,23.767 270.263,24.642 270.393,25.559C270.492,26.374 270.527,27.195 270.499,28.015L261.486,28.015C261.43,29.051 261.922,30.044 262.78,30.627C263.318,30.95 263.937,31.111 264.564,31.093C265.597,31.174 266.579,30.608 267.027,29.673L270.327,29.673C270.177,30.528 269.757,31.313 269.127,31.91C267.909,33.155 266.209,33.812 264.471,33.71C262.884,33.731 261.34,33.192 260.111,32.187C258.852,31.172 258.223,29.521 258.224,27.233C258.101,25.428 258.715,23.647 259.924,22.301C261.098,21.142 262.701,20.521 264.349,20.585C265.349,20.57 266.342,20.767 267.26,21.165M262.419,23.965C261.935,24.495 261.633,25.166 261.557,25.88L267.132,25.88C267.126,25.137 266.813,24.429 266.269,23.924C265.734,23.473 265.05,23.235 264.35,23.257C263.636,23.213 262.936,23.47 262.419,23.965" style="fill:rgb(7,188,167);fill-rule:nonzero;"/>
        </g>
        <g id="パス_71" transform="matrix(1,0,0,1,-76.245,-5.642)">
            <path d="M285.829,20.644C285.87,20.644 285.963,20.654 286.107,20.661L286.107,23.977C285.903,23.954 285.721,23.939 285.562,23.931C285.403,23.924 285.273,23.92 285.176,23.92C284.129,23.791 283.1,24.291 282.553,25.192C282.262,25.887 282.134,26.64 282.179,27.392L282.179,33.308L278.92,33.308L278.92,20.933L282.008,20.933L282.008,23.09C282.352,22.461 282.793,21.89 283.314,21.398C283.984,20.869 284.823,20.599 285.676,20.637C285.736,20.637 285.787,20.637 285.829,20.643" style="fill:rgb(7,188,167);fill-rule:nonzero;"/>
        </g>
        <g id="長方形_1478" transform="matrix(1,0,0,1,0,26.159)">
            <rect x="0" y="0" width="51.592" height="25.433" style="fill:rgb(7,188,167);"/>
        </g>
        <path id="パス_72" d="M210,36.102L82.837,36.102L82.837,65.168L210,65.168L210,36.102ZM202.227,46.735C203.099,47.129 203.841,47.765 204.365,48.566C204.885,49.333 205.222,50.208 205.352,51.125C205.451,51.94 205.486,52.761 205.458,53.581L196.445,53.581C196.389,54.617 196.881,55.61 197.739,56.193C198.277,56.516 198.896,56.677 199.523,56.659C200.556,56.74 201.538,56.174 201.986,55.239L205.286,55.239C205.136,56.094 204.716,56.879 204.086,57.476C202.868,58.721 201.168,59.378 199.43,59.276C197.843,59.297 196.299,58.758 195.07,57.753C193.811,56.738 193.182,55.087 193.183,52.799C193.06,50.994 193.674,49.213 194.883,47.867C196.057,46.708 197.66,46.087 199.308,46.151C200.308,46.136 201.301,46.333 202.219,46.731L202.227,46.735ZM167.396,57.351C164.765,59.913 160.512,59.913 157.881,57.351C155.796,54.612 155.796,50.79 157.881,48.051C160.495,45.451 164.782,45.451 167.396,48.051C169.48,50.79 169.48,54.612 167.396,57.351ZM147.44,42.129L152.471,42.129L152.471,58.864L149.212,58.864L149.212,47.545L149.236,44.82L146.065,58.865L142.665,58.865L139.516,44.82L139.539,47.545L139.539,58.865L136.281,58.865L136.281,42.129L141.37,42.129L144.416,55.288L147.44,42.129ZM186.581,46.49L189.862,46.49L189.862,58.865L186.581,58.865L186.581,46.49ZM180.064,46.489L183.538,46.489L179.069,58.864L175.657,58.864L171.219,46.489L174.852,46.489L177.429,55.618L180.064,46.489ZM164.806,55.56C165.819,53.786 165.819,51.603 164.806,49.829C164.26,49.192 163.462,48.825 162.623,48.825C161.784,48.825 160.986,49.192 160.44,49.829C159.42,51.601 159.42,53.788 160.44,55.56C160.984,56.2 161.783,56.57 162.623,56.57C163.463,56.57 164.262,56.2 164.806,55.56ZM197.378,49.531C196.894,50.061 196.592,50.732 196.516,51.446L202.091,51.446C202.085,50.703 201.772,49.995 201.228,49.49C200.693,49.039 200.009,48.801 199.309,48.823C198.595,48.779 197.895,49.036 197.378,49.531ZM189.862,45.014L186.58,45.014L186.58,42.028L189.862,42.028L189.862,45.014Z" style="fill:rgb(7,188,167);fill-rule:nonzero;"/>
    </g>
</svg>
