<svg width="80" height="30" viewBox="0 0 80 30" fill="none" xmlns="http://www.w3.org/2000/svg">
<g clip-path="url(#clip0_12_264)">
<path d="M18.1505 6.10361C18.4111 5.54072 18.546 4.92885 18.546 4.30945C18.546 1.94486 16.5783 -0.00113511 14.1875 -0.00113511C11.7966 -0.00113511 9.82901 1.94486 9.82901 4.30945C9.82901 4.3102 9.82901 4.31058 9.82901 4.31133C9.82901 4.34373 9.8332 4.375 9.83396 4.40703H9.82444C9.82444 4.375 9.82901 4.34373 9.82901 4.31171C9.82901 4.3102 9.82901 4.30832 9.82901 4.30681C9.82901 1.94109 7.86101 -0.00527954 5.46901 -0.00527954C3.07701 -0.00527954 1.10901 1.94109 1.10901 4.30681C1.10901 4.92697 1.24425 5.53996 1.50558 6.10361H1.50329L1.51206 6.11604C1.69644 6.51127 1.94063 6.87635 2.23587 7.19887L3.18825 8.62342H16.4648L17.4172 7.20188C17.7147 6.87748 17.9608 6.51014 18.1463 6.11227L18.1505 6.10361Z" fill="white"/>
<path d="M20.7611 11.7958V17.5603L26.5744 19.7742V9.58191L20.7611 11.7958Z" fill="white"/>
<path d="M12.6187 22.7235H14.9478V20.2595H4.98249V22.7235H7.58859L4.07849 28.0529L5.93411 29.2483L8.85792 24.8089V29.2924H11.0724V24.3884L14.2724 29.2487L16.128 28.0532L12.6187 22.7235Z" fill="white"/>
<path d="M36.1444 4.28158C36.3761 4.37916 36.5806 4.53024 36.7414 4.72202C36.8755 4.88101 36.9837 5.05998 37.0618 5.2525C37.1437 5.46425 37.1837 5.68918 37.1799 5.91561C37.178 6.22418 37.0995 6.52748 36.9513 6.79875C36.7913 7.09451 36.5189 7.3153 36.1943 7.4125C36.4549 7.50217 36.6759 7.67812 36.8195 7.91097C36.9612 8.21991 37.0244 8.55825 37.0031 8.89696V9.32045C36.9966 9.51637 37.0084 9.71266 37.0382 9.9067C37.0644 10.0555 37.154 10.1866 37.2843 10.2658V10.424H35.8142C35.7738 10.2842 35.7448 10.1712 35.7277 10.0849C35.693 9.90594 35.674 9.72396 35.6713 9.54161L35.6625 8.95536C35.6923 8.6709 35.6176 8.38531 35.4519 8.15097C35.2336 7.99159 34.9623 7.92001 34.693 7.95015H33.3917V10.424H32.09V4.11882H35.1376C35.4801 4.1109 35.8214 4.16629 36.1437 4.28158M33.3902 5.21407V6.90952H34.8237C35.042 6.9212 35.2606 6.88616 35.4641 6.80704C35.7258 6.67065 35.8763 6.3877 35.842 6.09721C35.8808 5.79279 35.738 5.49213 35.4766 5.3271C35.2831 5.2412 35.0721 5.20239 34.8602 5.21407H33.3902Z" fill="white"/>
<path d="M41.872 5.85569C42.2042 6.00414 42.4872 6.24301 42.6869 6.5448C42.8849 6.83377 43.0137 7.16345 43.0629 7.50894C43.1006 7.816 43.1143 8.12533 43.1032 8.43428H39.6697C39.6488 8.82461 39.8362 9.19836 40.1627 9.41839C40.3676 9.54009 40.6034 9.60075 40.8423 9.59396C41.2358 9.6241 41.6099 9.41086 41.7806 9.05896H43.0377C42.9809 9.38109 42.8206 9.67685 42.5806 9.90178C42.1169 10.3709 41.4689 10.6188 40.8069 10.58C40.2023 10.5879 39.6141 10.3848 39.1463 10.0061C38.6667 9.62373 38.427 9.00169 38.427 8.13965C38.3802 7.45958 38.6141 6.78856 39.0747 6.28144C39.5219 5.84476 40.1326 5.61079 40.7604 5.6349C41.1413 5.62925 41.5196 5.70385 41.8693 5.85343M40.0251 6.90837C39.8404 7.10806 39.7253 7.36087 39.6964 7.62988H41.8202C41.8179 7.35032 41.699 7.08319 41.4918 6.89293C41.288 6.72301 41.0274 6.63334 40.7608 6.64162C40.4888 6.62505 40.2217 6.72188 40.0251 6.90837Z" fill="white"/>
<path d="M49.8743 5.77884C50.0907 5.86964 50.28 6.01394 50.4236 6.1978C50.5611 6.37262 50.6529 6.57834 50.6903 6.79686C50.7238 7.02481 50.7383 7.25539 50.7333 7.48559L50.7246 10.4244H49.4617V7.45545C49.467 7.3055 49.4377 7.15592 49.3752 7.01915C49.2598 6.79912 49.0194 6.66989 48.7699 6.694C48.4693 6.67065 48.1851 6.83944 48.0647 7.11297C47.9943 7.28251 47.9604 7.46449 47.9649 7.6476V10.424H46.7238V7.64798C46.7352 7.44339 46.7059 7.23843 46.6373 7.04515C46.528 6.81608 46.2827 6.67969 46.0278 6.70606C45.7451 6.67178 45.467 6.80477 45.3185 7.04515C45.2419 7.22638 45.208 7.42229 45.219 7.61859V10.4247H43.9688V5.77017H45.1668V6.44835C45.28 6.25243 45.4263 6.07724 45.5992 5.93068C46.1436 5.58141 46.8442 5.56672 47.403 5.893C47.5847 6.04258 47.7246 6.23548 47.8095 6.45325C47.9493 6.20082 48.1577 5.99209 48.4107 5.85043C48.6735 5.72006 48.9642 5.65375 49.2583 5.6579C49.4689 5.65865 49.6773 5.69934 49.8724 5.77771" fill="white"/>
<path d="M55.3829 5.85571C55.7151 6.00415 55.9978 6.2434 56.1974 6.54481C56.3951 6.83379 56.5239 7.16346 56.573 7.50896C56.6107 7.81602 56.6244 8.12535 56.6134 8.43429H53.1799C53.1593 8.82462 53.3463 9.19838 53.6728 9.41841C53.8778 9.5401 54.1136 9.60076 54.3524 9.59398C54.7459 9.62412 55.12 9.41087 55.2907 9.05897H56.5479C56.4911 9.38111 56.3307 9.67687 56.0907 9.9018C55.6267 10.3709 54.9791 10.6188 54.3166 10.58C53.7124 10.5879 53.1242 10.3844 52.6564 10.0062C52.1768 9.62375 51.9372 9.0017 51.9368 8.13966C51.8899 7.4596 52.1239 6.78858 52.5844 6.28145C53.0317 5.84478 53.6427 5.61043 54.2705 5.63492C54.6515 5.62927 55.0294 5.70387 55.3791 5.85345M53.5353 6.90839C53.3505 7.1077 53.2351 7.36089 53.2065 7.6299H55.33C55.3277 7.35034 55.2092 7.08359 55.002 6.89294C54.7981 6.72302 54.5376 6.63335 54.2709 6.64164C53.9989 6.62506 53.7319 6.72189 53.5353 6.90839Z" fill="white"/>
<path d="M63.5623 5.77884C63.7787 5.86964 63.9676 6.01394 64.1112 6.1978C64.2491 6.37262 64.3406 6.57834 64.3779 6.79686C64.4118 7.02481 64.4263 7.25539 64.4209 7.48559L64.4122 10.4244H63.1493V7.45545C63.155 7.3055 63.1253 7.15592 63.0628 7.01915C62.9474 6.79912 62.707 6.66989 62.4575 6.694C62.1569 6.67065 61.8728 6.83944 61.7524 7.11297C61.6819 7.28251 61.648 7.46449 61.6526 7.6476V10.424H60.4114V7.64798C60.4229 7.44339 60.3935 7.23843 60.3249 7.04515C60.2156 6.81608 59.9703 6.67969 59.7154 6.70606C59.4328 6.67178 59.1547 6.80477 59.0061 7.04515C58.9299 7.22638 58.8956 7.42267 58.9067 7.61859V10.4247H57.6564V5.77017H58.8545V6.44835C58.9676 6.25281 59.1139 6.07762 59.2868 5.93068C59.8312 5.58141 60.5318 5.56672 61.0907 5.893C61.2724 6.0422 61.4122 6.2351 61.4971 6.45325C61.6369 6.20119 61.8453 5.99209 62.0983 5.85043C62.3611 5.72006 62.6518 5.65375 62.9459 5.6579C63.1566 5.65865 63.3649 5.69934 63.56 5.77771" fill="white"/>
<path d="M70.0248 6.32176C70.3943 6.81532 70.581 7.41965 70.5539 8.03303C70.5791 8.67315 70.3962 9.30424 70.032 9.83397C69.4614 10.5506 68.4404 10.7563 67.632 10.3174C67.4507 10.1862 67.2945 10.0239 67.1711 9.83812V10.424H65.9554V4.12747H67.1878V6.36923C67.325 6.17105 67.5013 6.00226 67.7059 5.87303C67.9634 5.72157 68.2598 5.64735 68.5593 5.65903C69.1265 5.63341 69.6728 5.88094 70.024 6.32213M68.9954 9.16257C69.1859 8.8638 69.2789 8.51416 69.2621 8.16151C69.2709 7.88195 69.2263 7.60352 69.1311 7.34016C69.0023 6.95548 68.6259 6.70191 68.2168 6.72414C67.8073 6.69815 67.4267 6.94493 67.2876 7.32697C67.192 7.59259 67.1474 7.87403 67.157 8.15585C67.1433 8.50587 67.2374 8.85212 67.4271 9.14826C67.6126 9.4135 67.9261 9.56308 68.2514 9.54198C68.5501 9.5529 68.8335 9.40823 68.9973 9.16107" fill="white"/>
<path d="M74.9253 5.85569C75.2575 6.00414 75.5406 6.24301 75.7402 6.54479C75.9383 6.83377 76.0667 7.16344 76.1162 7.50894C76.1539 7.816 76.1672 8.12533 76.1566 8.43428H72.723C72.7017 8.82461 72.8891 9.19874 73.216 9.41839C73.421 9.54009 73.6568 9.60074 73.8956 9.59396C74.2891 9.62448 74.6632 9.41123 74.8339 9.05896H76.091C76.0339 9.38109 75.8739 9.67685 75.6339 9.90178C75.1699 10.3709 74.5223 10.6184 73.8602 10.58C73.2556 10.5879 72.6674 10.3848 72.1992 10.0061C71.7196 9.62373 71.48 9.00169 71.4804 8.13965C71.4335 7.45958 71.6674 6.78856 72.128 6.28144C72.5752 5.84476 73.1859 5.61079 73.8137 5.6349C74.1947 5.62925 74.573 5.70348 74.9227 5.85343M73.0785 6.90837C72.8941 7.10806 72.7791 7.36087 72.7501 7.62988H74.8739C74.8716 7.34994 74.7524 7.08319 74.5452 6.89293C74.3413 6.72301 74.0808 6.63333 73.8141 6.64162C73.5421 6.62505 73.2754 6.72188 73.0785 6.90837Z" fill="white"/>
<path d="M79.8415 5.65225C79.8571 5.65225 79.8925 5.65602 79.9474 5.65866V6.90801C79.8697 6.89935 79.8003 6.8937 79.7398 6.89068C79.6792 6.88804 79.6297 6.88654 79.5927 6.88654C79.1938 6.83793 78.8019 7.02632 78.5935 7.36578C78.4826 7.62764 78.4338 7.91134 78.451 8.19467V10.4236H77.2095V5.76114H78.3858V6.57382C78.5169 6.33684 78.6849 6.1217 78.8834 5.93633C79.1386 5.73702 79.4582 5.6353 79.7832 5.64961C79.806 5.64961 79.8255 5.64999 79.8415 5.65225Z" fill="white"/>
<path d="M19.6541 9.85583H0V19.4381H19.6541V9.85583Z" fill="white"/>
<path d="M80.0001 13.602H31.557V24.5531H80.0001V13.602ZM77.0389 17.6081C77.3711 17.7566 77.6538 17.9962 77.8534 18.298C78.0515 18.587 78.1799 18.9167 78.2294 19.2621C78.2671 19.5692 78.2804 19.8785 78.2698 20.1875H74.8363C74.8149 20.5778 75.0023 20.9519 75.3292 21.1716C75.5341 21.2933 75.77 21.354 76.0088 21.3472C76.4023 21.3777 76.7764 21.1644 76.9471 20.8122H78.2042C78.1471 21.1343 77.9871 21.4301 77.7471 21.655C77.2831 22.1241 76.6355 22.3716 75.9734 22.3332C75.3688 22.3411 74.7806 22.138 74.3124 21.7594C73.8328 21.3769 73.5932 20.7549 73.5936 19.8929C73.5467 19.2128 73.7806 18.5418 74.2412 18.0346C74.6884 17.598 75.2991 17.364 75.9269 17.3881C76.3079 17.3825 76.6861 17.4567 77.0359 17.6066L77.0389 17.6081ZM63.77 21.6079C62.7677 22.5732 61.1475 22.5732 60.1452 21.6079C59.3509 20.5759 59.3509 19.1359 60.1452 18.104C61.141 17.1244 62.7741 17.1244 63.77 18.104C64.5639 19.1359 64.5639 20.5759 63.77 21.6079ZM56.1677 15.8728H58.0842V22.1779H56.8427V17.9133L56.8519 16.8866L55.6439 22.1783H54.3486L53.149 16.8866L53.1578 17.9133V22.1783H51.9166V15.8728H53.8553L55.0157 20.8306L56.1677 15.8728ZM71.0785 17.5158H72.3284V22.1783H71.0785V17.5158ZM68.5959 17.5155H69.9193L68.2168 22.1779H66.917L65.2263 17.5155H66.6103L67.5921 20.955L68.5959 17.5155ZM62.7833 20.9331C63.1692 20.2647 63.1692 19.4422 62.7833 18.7739C62.5753 18.5339 62.2713 18.3956 61.9517 18.3956C61.6321 18.3956 61.3281 18.5339 61.1201 18.7739C60.7315 19.4415 60.7315 20.2655 61.1201 20.9331C61.3273 21.1742 61.6317 21.3136 61.9517 21.3136C62.2717 21.3136 62.5761 21.1742 62.7833 20.9331ZM75.1917 18.6616C75.0073 18.8613 74.8923 19.1141 74.8633 19.3831H76.9871C76.9848 19.1032 76.8656 18.8364 76.6583 18.6461C76.4545 18.4762 76.194 18.3865 75.9273 18.3948C75.6553 18.3783 75.3886 18.4751 75.1917 18.6616ZM72.3284 16.9597H71.0782V15.8347H72.3284V16.9597Z" fill="white"/>
</g>
<defs>
<clipPath id="clip0_12_264">
<rect width="80" height="29.3878" fill="white"/>
</clipPath>
</defs>
</svg>
