<svg xmlns="http://www.w3.org/2000/svg" xmlns:xlink="http://www.w3.org/1999/xlink" width="50" height="36.036" viewBox="0 0 50 36.036">
  <defs>
    <linearGradient id="linear-gradient" y1="0.5" x2="1" y2="0.5" gradientUnits="objectBoundingBox">
      <stop offset="0" stop-color="#90cea1"/>
      <stop offset="0.56" stop-color="#3cbec9"/>
      <stop offset="1" stop-color="#00b3e5"/>
    </linearGradient>
  </defs>
  <path id="パス_6" data-name="パス 6" d="M13.793,18.018h0a4.773,4.773,0,0,1,4.773-4.781h-.027a4.773,4.773,0,0,1,4.773,4.781h0a4.773,4.773,0,0,1-4.773,4.773h.027A4.773,4.773,0,0,1,13.793,18.018ZM36.125,9.555h8.887a4.773,4.773,0,0,0,4.773-4.773h0A4.773,4.773,0,0,0,45.012,0H36.125a4.773,4.773,0,0,0-4.773,4.781h0a4.773,4.773,0,0,0,4.773,4.773ZM5.6,36.027H22.861a4.773,4.773,0,0,0,4.773-4.773h0a4.773,4.773,0,0,0-4.773-4.781H5.6A4.773,4.773,0,0,0,.827,31.254h0A4.773,4.773,0,0,0,5.6,36.027ZM28.269,22.791h1.688L33.9,13.236H31.646l-2.4,6.267h-.027l-2.364-6.267h-2.4Zm8.766,0h2.107V13.236H37.035Zm6,0h6.74V20.854H45.139V18.909h4.146V16.964H45.139V15.181h4.39V13.236H43.045ZM2.728,9.563H4.835v-7.7H7.564V0H0V1.864H2.728Zm7.807,0h2.107V5.43h4.079V9.563h2.107V0H16.721V3.566H12.629V0H10.535Zm11.143,0h6.753V7.618h-4.66V5.673h4.147V3.728H23.771V1.945h4.39V0H21.678ZM.338,22.8H2.431V15.465h.027L4.889,22.8H6.483L9,15.465h.027V22.8h2.107V13.236H7.955L5.74,19.476H5.713l-2.2-6.24H.324ZM30.617,36.035h3.42a6.643,6.643,0,0,0,2.042-.311,5.273,5.273,0,0,0,1.715-.91,4.422,4.422,0,0,0,1.18-1.486,4.568,4.568,0,0,0,.465-2.048,5,5,0,0,0-.454-2.229,4.079,4.079,0,0,0-1.221-1.494,5.011,5.011,0,0,0-1.818-.816,9.06,9.06,0,0,0-2.18-.27H30.6Zm2.11-7.618h1.243a4.709,4.709,0,0,1,1.262.167,3.155,3.155,0,0,1,1.048.508,2.431,2.431,0,0,1,.708.859,2.666,2.666,0,0,1,.27,1.221,3.22,3.22,0,0,1-.27,1.372,2.347,2.347,0,0,1-.721.9,2.936,2.936,0,0,1-1.081.494,5.828,5.828,0,0,1-1.351.149H32.713Zm9.763,7.618h3.917a6.243,6.243,0,0,0,1.278-.135,3.615,3.615,0,0,0,1.153-.446,2.545,2.545,0,0,0,.837-.81A2.3,2.3,0,0,0,50,33.38a2.474,2.474,0,0,0-.149-.864,2.1,2.1,0,0,0-.424-.708,2.264,2.264,0,0,0-.662-.5,2.7,2.7,0,0,0-.859-.27v-.027a2.507,2.507,0,0,0,1.2-.762,2,2,0,0,0,.451-1.351,2.253,2.253,0,0,0-.311-1.256,2.129,2.129,0,0,0-.81-.737,3.485,3.485,0,0,0-1.126-.351,9.3,9.3,0,0,0-1.251-.086H42.489Zm2.107-7.78h1.432a2.915,2.915,0,0,1,.5.046,1.559,1.559,0,0,1,.459.157.9.9,0,0,1,.332.305.87.87,0,0,1,.127.492.981.981,0,0,1-.113.486.9.9,0,0,1-.305.324,1.292,1.292,0,0,1-.424.176,2.2,2.2,0,0,1-.481.054H44.572Zm0,3.822H46.19a4.082,4.082,0,0,1,.554.041,2.115,2.115,0,0,1,.54.149,1.08,1.08,0,0,1,.427.316.845.845,0,0,1,.167.54,1,1,0,0,1-.127.527,1.08,1.08,0,0,1-.332.351,1.291,1.291,0,0,1-.451.189,2.409,2.409,0,0,1-.494.054H44.582Z" transform="translate(0 0)" fill="url(#linear-gradient)"/>
</svg>
